<?xml version="1.0" encoding="UTF-8" standalone="no"?>
<!-- Generator: Adobe Illustrator 27.0.0, SVG Export Plug-In . SVG Version: 6.00 Build 0)  -->

<svg
   xmlns:dc="http://purl.org/dc/elements/1.1/"
   xmlns:cc="http://creativecommons.org/ns#"
   xmlns:rdf="http://www.w3.org/1999/02/22-rdf-syntax-ns#"
   xmlns:svg="http://www.w3.org/2000/svg"
   xmlns="http://www.w3.org/2000/svg"
   xmlns:sodipodi="http://sodipodi.sourceforge.net/DTD/sodipodi-0.dtd"
   xmlns:inkscape="http://www.inkscape.org/namespaces/inkscape"
   version="1.1"
   id="Ebene_1"
   x="0px"
   y="0px"
   viewBox="0 0 190.16 173.23"
   style="enable-background:new 0 0 190.16 173.23;"
   xml:space="preserve"
   sodipodi:docname="DLR_Signet.svg"
   inkscape:version="0.92.4 (5da689c313, 2019-01-14)"><metadata
   id="metadata13"><rdf:RDF><cc:Work
       rdf:about=""><dc:format>image/svg+xml</dc:format><dc:type
         rdf:resource="http://purl.org/dc/dcmitype/StillImage" /><dc:title></dc:title></cc:Work></rdf:RDF></metadata><defs
   id="defs11" /><sodipodi:namedview
   pagecolor="#ffffff"
   bordercolor="#666666"
   borderopacity="1"
   objecttolerance="10"
   gridtolerance="10"
   guidetolerance="10"
   inkscape:pageopacity="0"
   inkscape:pageshadow="2"
   inkscape:window-width="1920"
   inkscape:window-height="1137"
   id="namedview9"
   showgrid="false"
   inkscape:zoom="2.7247013"
   inkscape:cx="105.1562"
   inkscape:cy="96.515073"
   inkscape:window-x="-8"
   inkscape:window-y="-8"
   inkscape:window-maximized="1"
   inkscape:current-layer="Ebene_1" />
<style
   type="text/css"
   id="style2">
	.st0{fill:none;}
	.st1{fill:#1D1D1B;}
</style>
<rect
   class="st0"
   width="190.16"
   height="173.83"
   id="rect4" />

<rect
   style="fill:#ffffff;fill-opacity:1"
   id="rect15"
   width="190.16002"
   height="173.83"
   x="2.2598432e-15"
   y="0" /><path
   class="st1"
   d="m 115.65526,71.801947 v -25.99 l -25.950004,25.99 h -22.27 l -21.22,21.22 h 26.13 v 26.060003 l 26.07,-26.070003 h 22.079994 l 21.2,-21.21 z m -5.33,-13.08 v 13.1 H 97.225256 Z m -51.230004,28.95 10.49,-10.51 h 14.72 l -10.5,10.51 z m 18.54,18.630003 V 93.021947 h 13.26 z m 18.63,-18.630003 h -14.88 l 10.49,-10.51 h 14.880004 z m 22.050004,0 h -14.49 l 10.49,-10.51 h 14.49999 z M 98.505256,108.63195 h 4.340004 c 4.86,0 9.15,1.64 9.15,7.92 0,6.29 -4.29,7.92 -9.15,7.92 h -4.340004 z m 3.180004,13.35 h 1.77 c 2.65,0 5.22,-1.97 5.22,-5.42 0,-3.45 -2.57,-5.43 -5.22,-5.43 h -1.77 z m 13.67,-13.35 h 3.18 v 13.35 h 6.14999 v 2.5 h -9.32999 z m 12.17999,0 h 3.43 c 3.41,0 7.47,-0.11 7.47,4.29 0,1.86 -1.25,3.41 -3.27,3.68 v 0.05 c 0.86,0.07 1.36,0.93 1.68,1.63 l 2.54,6.2 h -3.54 l -1.91,-4.95 c -0.46,-1.18 -0.86,-1.63 -2.2,-1.63 h -1.02 v 6.58 h -3.18 z m 3.18,6.76 h 1.05 c 1.56,0 3.36,-0.23 3.36,-2.2 0,-1.9 -1.77,-2.07 -3.36,-2.07 h -1.05 z"
   id="path6"
   inkscape:connector-curvature="0"
   style="fill:#1d1d1b" /></svg>