<?xml version="1.0" encoding="utf-8"?>
<!-- Generator: Adobe Illustrator 27.0.0, SVG Export Plug-In . SVG Version: 6.00 Build 0)  -->
<svg version="1.1" id="Ebene_1" xmlns="http://www.w3.org/2000/svg" xmlns:xlink="http://www.w3.org/1999/xlink" x="0px" y="0px"
	 viewBox="0 0 190.16 173.23" style="enable-background:new 0 0 190.16 173.23;" xml:space="preserve">
<style type="text/css">
	.st0{fill:none;}
	.st1{fill:#1D1D1B;}
</style>
<rect class="st0" width="190.16" height="173.83"/>
<path class="st1" d="M116.91,73.59V47.6L90.96,73.59H68.69L47.47,94.81l26.13,0v26.06l26.07-26.07h22.08l21.2-21.21H116.91z
	 M111.58,60.51v13.1h-13.1L111.58,60.51z M60.35,89.46l10.49-10.51h14.72l-10.5,10.51H60.35z M78.89,108.09V94.81h13.26
	L78.89,108.09z M97.52,89.46H82.64l10.49-10.51h14.88L97.52,89.46z M119.57,89.46h-14.49l10.49-10.51h14.5L119.57,89.46z
	 M99.76,110.42h4.34c4.86,0,9.15,1.64,9.15,7.92c0,6.29-4.29,7.92-9.15,7.92h-4.34V110.42z M102.94,123.77h1.77
	c2.65,0,5.22-1.97,5.22-5.42c0-3.45-2.57-5.43-5.22-5.43h-1.77V123.77z M116.61,110.42h3.18v13.35h6.15v2.5h-9.33V110.42z
	 M128.79,110.42h3.43c3.41,0,7.47-0.11,7.47,4.29c0,1.86-1.25,3.41-3.27,3.68v0.05c0.86,0.07,1.36,0.93,1.68,1.63l2.54,6.2h-3.54
	l-1.91-4.95c-0.46-1.18-0.86-1.63-2.2-1.63h-1.02v6.58h-3.18V110.42z M131.97,117.18h1.05c1.56,0,3.36-0.23,3.36-2.2
	c0-1.9-1.77-2.07-3.36-2.07h-1.05V117.18z"/>
</svg>
