<?xml version="1.0" encoding="UTF-8" standalone="no"?>
<!-- Created with Inkscape (http://www.inkscape.org/) -->

<svg
   xmlns:dc="http://purl.org/dc/elements/1.1/"
   xmlns:cc="http://creativecommons.org/ns#"
   xmlns:rdf="http://www.w3.org/1999/02/22-rdf-syntax-ns#"
   xmlns:svg="http://www.w3.org/2000/svg"
   xmlns="http://www.w3.org/2000/svg"
   xmlns:sodipodi="http://sodipodi.sourceforge.net/DTD/sodipodi-0.dtd"
   xmlns:inkscape="http://www.inkscape.org/namespaces/inkscape"
   width="116.32533mm"
   height="120mm"
   viewBox="0 0 116.32533 120"
   version="1.1"
   id="svg8"
   inkscape:version="0.92.4 (5da689c313, 2019-01-14)"
   sodipodi:docname="full-logo.svg">
  <title
     id="title1709">FieldMApp</title>
  <defs
     id="defs2">
    <clipPath
       id="clipPath831"
       clipPathUnits="userSpaceOnUse">
      <path
         style="clip-rule:evenodd"
         inkscape:connector-curvature="0"
         id="path829"
         d="M 0,1.2207e-4 H 960 V 540.00012 H 0 Z" />
    </clipPath>
    <clipPath
       id="clipPath841"
       clipPathUnits="userSpaceOnUse">
      <path
         style="clip-rule:evenodd"
         inkscape:connector-curvature="0"
         id="path839"
         d="M 0,1.2207e-4 H 960 V 540.00012 H 0 Z" />
    </clipPath>
    <clipPath
       id="clipPath885"
       clipPathUnits="userSpaceOnUse">
      <path
         style="clip-rule:evenodd"
         inkscape:connector-curvature="0"
         id="path883"
         d="M 1.4305e-5,0 H 960.00001 V 540 H 1.4305e-5 Z" />
    </clipPath>
    <clipPath
       id="clipPath897"
       clipPathUnits="userSpaceOnUse">
      <path
         style="clip-rule:evenodd"
         inkscape:connector-curvature="0"
         id="path895"
         d="M 1.4305e-5,0 H 960.00001 V 540 H 1.4305e-5 Z" />
    </clipPath>
    <clipPath
       id="clipPath923"
       clipPathUnits="userSpaceOnUse">
      <path
         style="clip-rule:evenodd"
         inkscape:connector-curvature="0"
         id="path921"
         d="M -2.0815e-5,540 H 960 V -6.1035e-5 L 6.17e-7,0" />
    </clipPath>
    <clipPath
       id="clipPath933"
       clipPathUnits="userSpaceOnUse">
      <path
         style="clip-rule:evenodd"
         inkscape:connector-curvature="0"
         id="path931"
         d="M -8.256e-6,540 H 960 V -6.1035e-5 L -7.187e-6,6.1035e-5" />
    </clipPath>
    <clipPath
       id="clipPath1033"
       clipPathUnits="userSpaceOnUse">
      <path
         style="clip-rule:evenodd"
         inkscape:connector-curvature="0"
         id="path1031"
         d="M 1.4305e-5,0 H 960.00001 V 540 H 1.4305e-5 Z" />
    </clipPath>
    <clipPath
       id="clipPath1093"
       clipPathUnits="userSpaceOnUse">
      <path
         style="clip-rule:evenodd"
         inkscape:connector-curvature="0"
         id="path1091"
         d="M -3.4155e-5,540 H 960 V 0 H -1.3144e-5" />
    </clipPath>
    <clipPath
       id="clipPath1103"
       clipPathUnits="userSpaceOnUse">
      <path
         style="clip-rule:evenodd"
         inkscape:connector-curvature="0"
         id="path1101"
         d="M 1.892e-6,540 H 960 V -6.1035e-5 L 7.736e-6,6.1035e-5" />
    </clipPath>
    <clipPath
       id="clipPath1169"
       clipPathUnits="userSpaceOnUse">
      <path
         style="clip-rule:evenodd"
         inkscape:connector-curvature="0"
         id="path1167"
         d="M 1.4305e-5,0 H 960.00001 V 540 H 1.4305e-5 Z" />
    </clipPath>
    <clipPath
       id="clipPath1181"
       clipPathUnits="userSpaceOnUse">
      <path
         style="clip-rule:evenodd"
         inkscape:connector-curvature="0"
         id="path1179"
         d="M 1.4305e-5,0 H 960.00001 V 540 H 1.4305e-5 Z" />
    </clipPath>
    <clipPath
       id="clipPath1193"
       clipPathUnits="userSpaceOnUse">
      <path
         style="clip-rule:evenodd"
         inkscape:connector-curvature="0"
         id="path1191"
         d="M 1.4305e-5,0 H 960.00001 V 540 H 1.4305e-5 Z" />
    </clipPath>
    <clipPath
       id="clipPath1205"
       clipPathUnits="userSpaceOnUse">
      <path
         style="clip-rule:evenodd"
         inkscape:connector-curvature="0"
         id="path1203"
         d="M 1.4305e-5,0 H 960.00001 V 540 H 1.4305e-5 Z" />
    </clipPath>
    <clipPath
       id="clipPath1217"
       clipPathUnits="userSpaceOnUse">
      <path
         style="clip-rule:evenodd"
         inkscape:connector-curvature="0"
         id="path1215"
         d="M 1.4305e-5,0 H 960.00001 V 540 H 1.4305e-5 Z" />
    </clipPath>
    <clipPath
       id="clipPath1229"
       clipPathUnits="userSpaceOnUse">
      <path
         style="clip-rule:evenodd"
         inkscape:connector-curvature="0"
         id="path1227"
         d="M 1.4305e-5,0 H 960.00001 V 540 H 1.4305e-5 Z" />
    </clipPath>
    <clipPath
       id="clipPath1241"
       clipPathUnits="userSpaceOnUse">
      <path
         style="clip-rule:evenodd"
         inkscape:connector-curvature="0"
         id="path1239"
         d="M 1.4305e-5,0 H 960.00001 V 540 H 1.4305e-5 Z" />
    </clipPath>
    <clipPath
       id="clipPath1253"
       clipPathUnits="userSpaceOnUse">
      <path
         style="clip-rule:evenodd"
         inkscape:connector-curvature="0"
         id="path1251"
         d="M 1.4305e-5,0 H 960.00001 V 540 H 1.4305e-5 Z" />
    </clipPath>
  </defs>
  <sodipodi:namedview
     id="base"
     pagecolor="#ffffff"
     bordercolor="#666666"
     borderopacity="1.0"
     inkscape:pageopacity="0.0"
     inkscape:pageshadow="2"
     inkscape:zoom="0.7"
     inkscape:cx="-107.14711"
     inkscape:cy="131.03731"
     inkscape:document-units="mm"
     inkscape:current-layer="layer1"
     showgrid="false"
     fit-margin-top="0"
     fit-margin-left="0"
     fit-margin-right="0"
     fit-margin-bottom="0"
     inkscape:window-width="1920"
     inkscape:window-height="1177"
     inkscape:window-x="1912"
     inkscape:window-y="-8"
     inkscape:window-maximized="1" />
  <metadata
     id="metadata5">
    <rdf:RDF>
      <cc:Work
         rdf:about="">
        <dc:format>image/svg+xml</dc:format>
        <dc:type
           rdf:resource="http://purl.org/dc/dcmitype/StillImage" />
        <dc:title>FieldMApp</dc:title>
      </cc:Work>
    </rdf:RDF>
  </metadata>
  <g
     inkscape:label="Ebene 1"
     inkscape:groupmode="layer"
     id="layer1"
     transform="translate(91.787775,-107.56618)">
    <g
       id="g1705"
       transform="matrix(1.3286974,0,0,1.3286974,30.170407,-74.800423)">
      <path
         inkscape:connector-curvature="0"
         id="path1073"
         style="fill:none;stroke:#ffffff;stroke-width:2.45533323;stroke-linecap:butt;stroke-linejoin:miter;stroke-miterlimit:10;stroke-dasharray:none;stroke-opacity:1"
         d="m -5.4670461,179.64195 c 0,2.50825 -4.2439166,4.54378 -9.4826669,4.54378 -5.238749,0 -9.482666,-2.03553 -9.482666,-4.54378" />
      <path
         inkscape:connector-curvature="0"
         id="path1075"
         style="fill:none;stroke:#ffffff;stroke-width:2.45533323;stroke-linecap:butt;stroke-linejoin:miter;stroke-miterlimit:10;stroke-dasharray:none;stroke-opacity:1"
         d="m -24.432379,179.64195 c 0,-2.50825 4.243917,-4.54378 9.482666,-4.54378 5.2387503,0 9.4826669,2.03553 9.4826669,4.54378 v 18.17511 c 0,2.50931 -4.2439166,4.54378 -9.4826669,4.54378 -5.238749,0 -9.482666,-2.03447 -9.482666,-4.54378 z" />
      <path
         inkscape:connector-curvature="0"
         id="path1077"
         style="fill:none;stroke:#ffffff;stroke-width:2.45533323;stroke-linecap:round;stroke-linejoin:miter;stroke-miterlimit:10;stroke-dasharray:none;stroke-opacity:1"
         d="m -27.776712,191.48117 h 2.998611" />
      <path
         inkscape:connector-curvature="0"
         id="path1079"
         style="fill:none;stroke:#ffffff;stroke-width:2.45533323;stroke-linecap:round;stroke-linejoin:miter;stroke-miterlimit:10;stroke-dasharray:none;stroke-opacity:1"
         d="m -28.958518,191.31184 -5.803194,6.66644" />
      <path
         inkscape:connector-curvature="0"
         id="path1081"
         style="fill:none;stroke:#ffffff;stroke-width:2.45533323;stroke-linecap:round;stroke-linejoin:miter;stroke-miterlimit:10;stroke-dasharray:none;stroke-opacity:1"
         d="m -31.713712,186.02017 3.122083,5.50333" />
      <path
         inkscape:connector-curvature="0"
         id="path1083"
         style="fill:none;stroke:#ffffff;stroke-width:2.45533323;stroke-linecap:butt;stroke-linejoin:miter;stroke-miterlimit:10;stroke-dasharray:none;stroke-opacity:1"
         d="m -17.489713,191.37534 c 0,1.78858 -1.460499,3.2385 -3.259666,3.2385 -1.799167,0 -3.259667,-1.44992 -3.259667,-3.2385 0,-1.78859 1.4605,-3.2385 3.259667,-3.2385 1.799167,0 3.259666,1.44991 3.259666,3.2385 z" />
      <path
         inkscape:connector-curvature="0"
         id="path1085"
         style="fill:none;stroke:#ffffff;stroke-width:2.45533323;stroke-linecap:butt;stroke-linejoin:miter;stroke-miterlimit:10;stroke-dasharray:none;stroke-opacity:1"
         d="m -52.880378,166.16584 c 0,-1.79917 1.449916,-3.25967 3.2385,-3.25967 1.788583,0 3.238499,1.4605 3.238499,3.25967 0,1.79916 -1.449916,3.25966 -3.238499,3.25966 -1.788584,0 -3.2385,-1.4605 -3.2385,-3.25966 z" />
      <g
         transform="matrix(0.35277777,0,0,-0.35277777,-131.53571,231.23217)"
         id="g1087">
        <g
           clip-path="url(#clipPath1093)"
           id="g1089">
          <path
             inkscape:connector-curvature="0"
             id="path1095"
             style="fill:none;stroke:#ffffff;stroke-width:7;stroke-linecap:round;stroke-linejoin:miter;stroke-miterlimit:10;stroke-dasharray:none;stroke-opacity:1"
             d="m 224.9,212.68 -3.71,8.43" />
        </g>
      </g>
      <g
         transform="matrix(0.35277777,0,0,-0.35277777,-131.53571,231.23217)"
         id="g1097">
        <g
           clip-path="url(#clipPath1103)"
           id="g1099">
          <path
             inkscape:connector-curvature="0"
             id="path1105"
             style="fill:none;stroke:#ffffff;stroke-width:7;stroke-linecap:butt;stroke-linejoin:miter;stroke-miterlimit:10;stroke-dasharray:none;stroke-opacity:1"
             d="m 235.54,230.24 c 1.58,-3.39 -4.05,-9.34 -12.57,-13.3 -8.51,-3.96 -16.69,-4.43 -18.26,-1.04 -1.58,3.38 4.05,9.33 12.57,13.29 8.51,3.96 16.69,4.43 18.26,1.05 z" />
        </g>
      </g>
      <path
         inkscape:connector-curvature="0"
         id="path1107"
         style="fill:none;stroke:#ffffff;stroke-width:2.45533323;stroke-linecap:butt;stroke-linejoin:miter;stroke-miterlimit:10;stroke-dasharray:none;stroke-opacity:1"
         d="m -60.969573,146.02223 -0.991305,-2.04964 6.148916,-2.84692 0.991306,2.05317 9.521472,-4.50145 0.462139,-0.19755 h 0.398639 l 0.264583,0.067 0.462139,0.33161 1.982611,4.23333 0.06703,0.46214 v 0.19756 l -0.197556,0.39863 -0.264583,0.26459 -10.117667,4.7625 -14.876638,6.88269 -0.525639,0.19756 -0.529167,0.067 -0.465666,-0.067 -0.328084,-0.13053 -0.264583,-0.26458 -1.785056,-4.03578 -0.06703,-0.39864 0.130527,-0.46214 0.264584,-0.39864 0.73025,-0.52916 z" />
      <path
         inkscape:connector-curvature="0"
         id="path1109"
         style="fill:none;stroke:#ffffff;stroke-width:2.11666656;stroke-linecap:butt;stroke-linejoin:miter;stroke-miterlimit:10;stroke-dasharray:none;stroke-opacity:1"
         d="m -82.040989,184.45384 h -0.575028 l -0.709083,-0.0282 -0.818444,-0.0811 -0.656167,-0.0811 -0.627944,-0.16228 -0.709084,-0.13758 -0.08467,-0.21873 -0.02469,-0.59972 -0.05644,-0.5715 -0.02822,-0.5468 -0.109361,-0.27164 -0.352777,-0.13406 -0.874889,-0.19403 -0.680861,-0.1905 -0.41275,-0.16227 -0.243417,-0.40923 -0.08114,-0.27163 -0.08467,-0.35631 0.02822,-0.51506 0.05644,-0.57502 0.02469,-0.4057 -0.05292,-0.24694 -0.109361,-0.381 -0.02822,-0.29986 0.02822,-0.381 0.02822,-0.54681 v -0.54328 l -0.02822,-0.32808 -0.05644,-0.35278 h -0.218722 l -0.762,-0.0282 -0.165805,-0.0564 -0.218723,-0.0811 -0.05292,-0.24342 -0.02822,-0.51858 0.08114,-0.762 0.218723,-1.60867 0.1905,-1.19944 0.05644,-0.40923 0.02822,-0.65264 -0.02822,-0.3563 -0.08114,-0.16228 0.08114,-0.5715 0.246944,-0.95603 0.299862,-0.81844 0.243416,-0.68086 0.303389,-0.54328 0.299861,-0.5715 0.437445,-0.73731 0.518583,-0.59972 0.652639,-0.59972 0.493889,-0.35278 0.518583,-0.3563 0.709083,-0.381 0.437445,-0.21873 0.381,-0.10936 0.303389,-0.0247 0.709083,-0.10936 0.328083,-0.13759 0.462139,-0.0529 0.765528,-0.0847 0.903111,-0.0529 h 1.037167 l 0.5715,0.10937 0.575027,0.0811 1.093611,0.32809 0.627945,0.21872 0.546805,0.40569 0.599723,0.43745 0.518583,0.5715 0.599722,0.70908 0.518584,0.92781 0.384527,0.9525 0.1905,1.06539 0.08114,0.87136 c 0.01058,0.35278 0.01764,0.70908 0.02822,1.06186 l -0.05292,0.81844 -0.165806,1.09009 -0.1905,1.06186 -0.275166,1.17122 -0.299862,1.38994 -0.328083,1.30881 -0.218722,0.98072 -0.215195,1.14653 -0.109361,0.70908 -0.137583,0.87136 -0.137583,1.03364 -0.109361,0.87489 -0.218723,1.25236 v 0.46214 0.32809 l -0.162277,0.1905 -0.627945,0.27163 -0.627944,0.0564 -1.202972,0.16228 -0.818445,0.0564 -1.255889,0.0529 z" />
      <path
         inkscape:connector-curvature="0"
         id="path1111"
         style="fill:none;stroke:#ffffff;stroke-width:2.45533323;stroke-linecap:butt;stroke-linejoin:miter;stroke-miterlimit:10;stroke-dasharray:none;stroke-opacity:1"
         d="m -83.741378,169.2985 c 0,-1.79916 1.4605,-3.25966 3.259667,-3.25966 1.799167,0 3.259666,1.4605 3.259666,3.25966 0,1.79917 -1.460499,3.25967 -3.259666,3.25967 -1.799167,0 -3.259667,-1.4605 -3.259667,-3.25967 z" />
      <path
         inkscape:connector-curvature="0"
         id="path1113"
         style="fill:none;stroke:#ffffff;stroke-width:2.45533323;stroke-linecap:round;stroke-linejoin:miter;stroke-miterlimit:10;stroke-dasharray:none;stroke-opacity:1"
         d="m -70.755628,168.36717 h -6.00075" />
      <path
         inkscape:connector-curvature="0"
         id="path1115"
         style="fill:none;stroke:#ffffff;stroke-width:2.45533323;stroke-linecap:round;stroke-linejoin:miter;stroke-miterlimit:10;stroke-dasharray:none;stroke-opacity:1"
         d="m -67.644128,186.00959 -3.354917,-17.64242" />
      <path
         inkscape:connector-curvature="0"
         id="path1117"
         style="fill:none;stroke:#ffffff;stroke-width:2.45533323;stroke-linecap:round;stroke-linejoin:miter;stroke-miterlimit:10;stroke-dasharray:none;stroke-opacity:1"
         d="m -74.674989,198.25874 -2.758722,-0.0466" />
      <path
         inkscape:connector-curvature="0"
         id="path1119"
         style="fill:none;stroke:#ffffff;stroke-width:2.45533323;stroke-linecap:round;stroke-linejoin:miter;stroke-miterlimit:10;stroke-dasharray:none;stroke-opacity:1"
         d="m -64.793684,197.99098 -1.972027,-5.07048" />
      <path
         inkscape:connector-curvature="0"
         id="path1121"
         style="fill:none;stroke:#ffffff;stroke-width:2.45533323;stroke-linecap:round;stroke-linejoin:miter;stroke-miterlimit:10;stroke-dasharray:none;stroke-opacity:1"
         d="m -69.983045,202.8639 3.199695,-9.9434" />
      <path
         inkscape:connector-curvature="0"
         id="path1123"
         style="fill:none;stroke:#ffffff;stroke-width:2.45533323;stroke-linecap:round;stroke-linejoin:miter;stroke-miterlimit:10;stroke-dasharray:none;stroke-opacity:1"
         d="m -74.301045,198.10105 2.042584,-5.18055" />
      <path
         inkscape:connector-curvature="0"
         id="path1125"
         style="fill:none;stroke:#ffffff;stroke-width:2.45533323;stroke-linecap:round;stroke-linejoin:miter;stroke-miterlimit:10;stroke-dasharray:none;stroke-opacity:1"
         d="m -70.050072,202.98631 -2.049639,-10.02347" />
      <path
         inkscape:connector-curvature="0"
         id="path1127"
         style="fill:none;stroke:#ffffff;stroke-width:2.45533323;stroke-linecap:butt;stroke-linejoin:miter;stroke-miterlimit:10;stroke-dasharray:none;stroke-opacity:1"
         d="m -84.291711,198.21217 c 0,-1.80022 1.4605,-3.25967 3.259667,-3.25967 1.799166,0 3.259666,1.45945 3.259666,3.25967 0,1.80023 -1.4605,3.25967 -3.259666,3.25967 -1.799167,0 -3.259667,-1.45944 -3.259667,-3.25967 z" />
      <path
         inkscape:connector-curvature="0"
         id="path1129"
         style="fill:#3f803f;fill-opacity:1;fill-rule:evenodd;stroke:none;stroke-width:0.35277778"
         d="m -63.633045,173.05206 c 0,-0.88194 0.712611,-1.59456 1.594556,-1.59456 h 24.666221 c 0.881945,0 1.594556,0.71262 1.594556,1.59456 v 33.89595 c 0,0.88018 -0.712611,1.59349 -1.594556,1.59349 h -24.666221 c -0.881945,0 -1.594556,-0.71331 -1.594556,-1.59349 z" />
      <path
         inkscape:connector-curvature="0"
         id="path1131"
         style="fill:#a9d18e;fill-opacity:1;fill-rule:evenodd;stroke:none;stroke-width:0.35277778"
         d="m -62.447712,173.33075 c 0,-0.28575 0.232834,-0.51858 0.518584,-0.51858 h 24.532166 c 0.28575,0 0.518583,0.23283 0.518583,0.51858 v 30.66909 c 0,0.28716 -0.232833,0.52 -0.518583,0.52 h -24.532166 c -0.28575,0 -0.518584,-0.23284 -0.518584,-0.52 z" />
      <path
         inkscape:connector-curvature="0"
         id="path1133"
         style="fill:#ffffff;fill-opacity:1;fill-rule:evenodd;stroke:none;stroke-width:0.35277778"
         d="m -53.092045,180.24167 c 0,-1.92969 1.562805,-3.4925 3.4925,-3.4925 1.929694,0 3.4925,1.56281 3.4925,3.4925 0,1.9297 -1.562806,3.4925 -3.4925,3.4925 -1.929695,0 -3.4925,-1.5628 -3.4925,-3.4925 z" />
      <path
         inkscape:connector-curvature="0"
         id="path1135"
         style="fill:none;stroke:#3f803f;stroke-width:0.33866665;stroke-linecap:butt;stroke-linejoin:miter;stroke-miterlimit:10;stroke-dasharray:none;stroke-opacity:1"
         d="m -53.092045,180.24167 c 0,-1.92969 1.562805,-3.4925 3.4925,-3.4925 1.929694,0 3.4925,1.56281 3.4925,3.4925 0,1.9297 -1.562806,3.4925 -3.4925,3.4925 -1.929695,0 -3.4925,-1.5628 -3.4925,-3.4925 z" />
      <path
         inkscape:connector-curvature="0"
         id="path1137"
         style="fill:#ffffff;fill-opacity:1;fill-rule:evenodd;stroke:none;stroke-width:0.35277778"
         d="m -59.103378,197.97934 c 0,-1.92899 1.573389,-3.4925 3.513666,-3.4925 1.940278,0 3.513667,1.56351 3.513667,3.4925 0,1.92899 -1.573389,3.4925 -3.513667,3.4925 -1.940277,0 -3.513666,-1.56351 -3.513666,-3.4925 z" />
      <path
         inkscape:connector-curvature="0"
         id="path1139"
         style="fill:none;stroke:#3f803f;stroke-width:0.33866665;stroke-linecap:butt;stroke-linejoin:miter;stroke-miterlimit:10;stroke-dasharray:none;stroke-opacity:1"
         d="m -59.103378,197.97934 c 0,-1.92899 1.573389,-3.4925 3.513666,-3.4925 1.940278,0 3.513667,1.56351 3.513667,3.4925 0,1.92899 -1.573389,3.4925 -3.513667,3.4925 -1.940277,0 -3.513666,-1.56351 -3.513666,-3.4925 z" />
      <path
         inkscape:connector-curvature="0"
         id="path1141"
         style="fill:#ffffff;fill-opacity:1;fill-rule:evenodd;stroke:none;stroke-width:0.35277778"
         d="m -62.405378,186.21067 c 0,-1.92969 1.562805,-3.4925 3.4925,-3.4925 1.929694,0 3.4925,1.56281 3.4925,3.4925 0,1.9297 -1.562806,3.4925 -3.4925,3.4925 -1.929695,0 -3.4925,-1.5628 -3.4925,-3.4925 z" />
      <path
         inkscape:connector-curvature="0"
         id="path1143"
         style="fill:none;stroke:#3f803f;stroke-width:0.33866665;stroke-linecap:butt;stroke-linejoin:miter;stroke-miterlimit:10;stroke-dasharray:none;stroke-opacity:1"
         d="m -62.405378,186.21067 c 0,-1.92969 1.562805,-3.4925 3.4925,-3.4925 1.929694,0 3.4925,1.56281 3.4925,3.4925 0,1.9297 -1.562806,3.4925 -3.4925,3.4925 -1.929695,0 -3.4925,-1.5628 -3.4925,-3.4925 z" />
      <path
         inkscape:connector-curvature="0"
         id="path1145"
         style="fill:#ffffff;fill-opacity:1;fill-rule:evenodd;stroke:none;stroke-width:0.35277778"
         d="m -47.165379,198.08517 c 0,-1.94063 1.573389,-3.51367 3.513667,-3.51367 1.940278,0 3.513667,1.57304 3.513667,3.51367 0,1.94063 -1.573389,3.51367 -3.513667,3.51367 -1.940278,0 -3.513667,-1.57304 -3.513667,-3.51367 z" />
      <path
         inkscape:connector-curvature="0"
         id="path1147"
         style="fill:none;stroke:#3f803f;stroke-width:0.33866665;stroke-linecap:butt;stroke-linejoin:miter;stroke-miterlimit:10;stroke-dasharray:none;stroke-opacity:1"
         d="m -47.165379,198.08517 c 0,-1.94063 1.573389,-3.51367 3.513667,-3.51367 1.940278,0 3.513667,1.57304 3.513667,3.51367 0,1.94063 -1.573389,3.51367 -3.513667,3.51367 -1.940278,0 -3.513667,-1.57304 -3.513667,-3.51367 z" />
      <path
         inkscape:connector-curvature="0"
         id="path1149"
         style="fill:#ffffff;fill-opacity:1;fill-rule:evenodd;stroke:none;stroke-width:0.35277778"
         d="m -43.778712,186.02017 c 0,-1.94028 1.562806,-3.51367 3.4925,-3.51367 1.929694,0 3.4925,1.57339 3.4925,3.51367 0,1.94028 -1.562806,3.51367 -3.4925,3.51367 -1.929694,0 -3.4925,-1.57339 -3.4925,-3.51367 z" />
      <path
         inkscape:connector-curvature="0"
         id="path1151"
         style="fill:none;stroke:#3f803f;stroke-width:0.33866665;stroke-linecap:butt;stroke-linejoin:miter;stroke-miterlimit:10;stroke-dasharray:none;stroke-opacity:1"
         d="m -43.778712,186.02017 c 0,-1.94028 1.562806,-3.51367 3.4925,-3.51367 1.929694,0 3.4925,1.57339 3.4925,3.51367 0,1.94028 -1.562806,3.51367 -3.4925,3.51367 -1.929694,0 -3.4925,-1.57339 -3.4925,-3.51367 z" />
      <path
         inkscape:connector-curvature="0"
         id="path1153"
         style="fill:none;stroke:#ffffff;stroke-width:2.45533323;stroke-linecap:round;stroke-linejoin:miter;stroke-miterlimit:10;stroke-dasharray:none;stroke-opacity:1"
         d="m -41.027045,198.04284 h 6.00075" />
      <path
         inkscape:connector-curvature="0"
         id="path1155"
         style="fill:none;stroke:#ffffff;stroke-width:2.45533323;stroke-linecap:round;stroke-linejoin:miter;stroke-miterlimit:10;stroke-dasharray:none;stroke-opacity:1"
         d="m -38.063712,186.02017 h 6.00075" />
      <path
         inkscape:connector-curvature="0"
         id="path1157"
         style="fill:none;stroke:#ffffff;stroke-width:2.45533323;stroke-linecap:round;stroke-linejoin:miter;stroke-miterlimit:10;stroke-dasharray:none;stroke-opacity:1"
         d="m -64.649045,198.0005 h 6.00075" />
      <path
         inkscape:connector-curvature="0"
         id="path1159"
         style="fill:none;stroke:#ffffff;stroke-width:2.45533323;stroke-linecap:round;stroke-linejoin:miter;stroke-miterlimit:10;stroke-dasharray:none;stroke-opacity:1"
         d="m -67.654711,186.02017 h 6.000749" />
      <path
         inkscape:connector-curvature="0"
         id="path1161"
         style="fill:none;stroke:#ffffff;stroke-width:2.45533323;stroke-linecap:round;stroke-linejoin:miter;stroke-miterlimit:10;stroke-dasharray:none;stroke-opacity:1"
         d="m -49.536045,170.99184 v 6.00075" />
      <g
         transform="matrix(0.35277777,0,0,-0.35277777,-131.53571,231.23217)"
         id="g1163">
        <g
           clip-path="url(#clipPath1169)"
           id="g1165">
          <text
             id="text1173"
             style="font-variant:normal;font-weight:bold;font-size:32.04000092px;font-family:'Seravek Basic';-inkscape-font-specification:SeravekBasic-Bold;writing-mode:lr-tb;fill:#ffffff;fill-opacity:1;fill-rule:nonzero;stroke:none"
             transform="matrix(1,0,0,-1,153.41,16.992)">
            <tspan
               id="tspan1171"
               sodipodi:role="line"
               y="0"
               x="0 16.468559 25.43976 41.972401 51.61644 70.327797 98.010361 120.43836 139.14972">FieldMApp</tspan>
          </text>
        </g>
      </g>
    </g>
  </g>
</svg>
