<svg xmlns="http://www.w3.org/2000/svg" version="1.0" width="300.000000pt" height="300.000000pt" viewBox="0 0 300.000000 300.000000" preserveAspectRatio="xMidYMid meet">  <rect x="0" y="0" width="300.000000pt" height="300.000000pt" rx="32" ry="32" fill="white" /><g transform="translate(0.000000,300.000000) scale(0.100000,-0.100000)" fill="#77bb41" stroke="none"> <path d="M1927 2744 c-2 -2 -282 -4 -623 -4 -587 -1 -623 -2 -694 -21 -94 -25 -162 -64 -221 -126 -122 -126 -138 -190 -139 -565 l-2 -283 185 -3 185 -2 26 44 c46 78 112 116 203 116 98 0 174 -51 219 -145 45 -94 20 -201 -63 -276 -52 -47 -100 -62 -178 -57 -76 5 -130 37 -178 104 l-31 44 -186 -2 -185 -3 -1 -430 c-2 -466 2 -510 52 -613 37 -75 131 -172 205 -212 122 -65 106 -63 757 -67 l592 -4 0 273 0 274 -44 32 c-155 108 -149 325 11 419 40 23 59 28 113 28 43 -1 77 -7 100 -19 44 -23 97 -73 116 -108 l14 -27 151 -3 151 -3 24 -28 c29 -34 31 -76 3 -111 l-20 -26 -149 0 -148 0 -36 -50 c-19 -27 -48 -57 -63 -66 -54 -33 -53 -30 -53 -300 0 -139 3 -259 6 -268 13 -35 320 -15 419 27 134 56 235 161 285 295 21 56 40 230 34 312 -1 19 -3 180 -3 358 l-1 322 -189 0 -189 0 -37 -51 c-83 -117 -251 -134 -354 -36 -45 43 -81 121 -81 177 0 95 83 207 172 230 105 29 216 -13 271 -101 l30 -49 189 0 189 0 -1 278 c-1 171 -6 303 -14 343 -24 126 -123 262 -238 324 -87 47 -154 58 -376 60 -111 1 -203 0 -205 -1z m-387 -159 c16 -8 34 -24 40 -34 5 -11 10 -84 10 -163 l0 -144 29 -17 c44 -26 99 -92 110 -134 46 -163 -65 -313 -231 -313 -158 1 -272 158 -226 312 13 44 72 116 112 137 l26 14 0 144 c0 80 5 153 10 163 11 21 56 49 78 50 7 0 26 -7 42 -15z m-398 -1331 c101 -34 179 -156 164 -260 -20 -152 -169 -247 -318 -202 -45 13 -122 77 -144 119 l-15 29 -145 0 c-141 0 -146 1 -169 25 -32 31 -32 75 -1 112 l24 28 149 3 148 3 23 39 c56 98 175 142 284 104z" /> </g> </svg>