<?xml version="1.0" encoding="UTF-8" standalone="no"?>
<!-- Created with Inkscape (http://www.inkscape.org/) -->

<svg
   xmlns:dc="http://purl.org/dc/elements/1.1/"
   xmlns:cc="http://creativecommons.org/ns#"
   xmlns:rdf="http://www.w3.org/1999/02/22-rdf-syntax-ns#"
   xmlns:svg="http://www.w3.org/2000/svg"
   xmlns="http://www.w3.org/2000/svg"
   xmlns:sodipodi="http://sodipodi.sourceforge.net/DTD/sodipodi-0.dtd"
   xmlns:inkscape="http://www.inkscape.org/namespaces/inkscape"
   viewBox="0 0 74.331825 20.625076"
   version="1.1"
   id="svg8"
   sodipodi:docname="logo.svg"
   inkscape:version="0.92.4 (5da689c313, 2019-01-14)">
  <title
     id="title1778">FieldMApp</title>
  <defs
     id="defs2">
    <clipPath
       id="clipPath831"
       clipPathUnits="userSpaceOnUse">
      <path
         style="clip-rule:evenodd"
         inkscape:connector-curvature="0"
         id="path829"
         d="M 0,1.2207e-4 H 960 V 540.00012 H 0 Z" />
    </clipPath>
    <clipPath
       id="clipPath841"
       clipPathUnits="userSpaceOnUse">
      <path
         style="clip-rule:evenodd"
         inkscape:connector-curvature="0"
         id="path839"
         d="M 0,1.2207e-4 H 960 V 540.00012 H 0 Z" />
    </clipPath>
    <clipPath
       id="clipPath885"
       clipPathUnits="userSpaceOnUse">
      <path
         style="clip-rule:evenodd"
         inkscape:connector-curvature="0"
         id="path883"
         d="M 1.4305e-5,0 H 960.00001 V 540 H 1.4305e-5 Z" />
    </clipPath>
    <clipPath
       id="clipPath897"
       clipPathUnits="userSpaceOnUse">
      <path
         style="clip-rule:evenodd"
         inkscape:connector-curvature="0"
         id="path895"
         d="M 1.4305e-5,0 H 960.00001 V 540 H 1.4305e-5 Z" />
    </clipPath>
    <clipPath
       id="clipPath923"
       clipPathUnits="userSpaceOnUse">
      <path
         style="clip-rule:evenodd"
         inkscape:connector-curvature="0"
         id="path921"
         d="M -2.0815e-5,540 H 960 V -6.1035e-5 L 6.17e-7,0" />
    </clipPath>
    <clipPath
       id="clipPath933"
       clipPathUnits="userSpaceOnUse">
      <path
         style="clip-rule:evenodd"
         inkscape:connector-curvature="0"
         id="path931"
         d="M -8.256e-6,540 H 960 V -6.1035e-5 L -7.187e-6,6.1035e-5" />
    </clipPath>
    <clipPath
       id="clipPath1033"
       clipPathUnits="userSpaceOnUse">
      <path
         style="clip-rule:evenodd"
         inkscape:connector-curvature="0"
         id="path1031"
         d="M 1.4305e-5,0 H 960.00001 V 540 H 1.4305e-5 Z" />
    </clipPath>
    <clipPath
       id="clipPath1093"
       clipPathUnits="userSpaceOnUse">
      <path
         style="clip-rule:evenodd"
         inkscape:connector-curvature="0"
         id="path1091"
         d="M -3.4155e-5,540 H 960 V 0 H -1.3144e-5" />
    </clipPath>
    <clipPath
       id="clipPath1103"
       clipPathUnits="userSpaceOnUse">
      <path
         style="clip-rule:evenodd"
         inkscape:connector-curvature="0"
         id="path1101"
         d="M 1.892e-6,540 H 960 V -6.1035e-5 L 7.736e-6,6.1035e-5" />
    </clipPath>
    <clipPath
       id="clipPath1169"
       clipPathUnits="userSpaceOnUse">
      <path
         style="clip-rule:evenodd"
         inkscape:connector-curvature="0"
         id="path1167"
         d="M 1.4305e-5,0 H 960.00001 V 540 H 1.4305e-5 Z" />
    </clipPath>
    <clipPath
       id="clipPath1181"
       clipPathUnits="userSpaceOnUse">
      <path
         style="clip-rule:evenodd"
         inkscape:connector-curvature="0"
         id="path1179"
         d="M 1.4305e-5,0 H 960.00001 V 540 H 1.4305e-5 Z" />
    </clipPath>
    <clipPath
       id="clipPath1193"
       clipPathUnits="userSpaceOnUse">
      <path
         style="clip-rule:evenodd"
         inkscape:connector-curvature="0"
         id="path1191"
         d="M 1.4305e-5,0 H 960.00001 V 540 H 1.4305e-5 Z" />
    </clipPath>
    <clipPath
       id="clipPath1205"
       clipPathUnits="userSpaceOnUse">
      <path
         style="clip-rule:evenodd"
         inkscape:connector-curvature="0"
         id="path1203"
         d="M 1.4305e-5,0 H 960.00001 V 540 H 1.4305e-5 Z" />
    </clipPath>
    <clipPath
       id="clipPath1217"
       clipPathUnits="userSpaceOnUse">
      <path
         style="clip-rule:evenodd"
         inkscape:connector-curvature="0"
         id="path1215"
         d="M 1.4305e-5,0 H 960.00001 V 540 H 1.4305e-5 Z" />
    </clipPath>
    <clipPath
       id="clipPath1229"
       clipPathUnits="userSpaceOnUse">
      <path
         style="clip-rule:evenodd"
         inkscape:connector-curvature="0"
         id="path1227"
         d="M 1.4305e-5,0 H 960.00001 V 540 H 1.4305e-5 Z" />
    </clipPath>
    <clipPath
       id="clipPath1241"
       clipPathUnits="userSpaceOnUse">
      <path
         style="clip-rule:evenodd"
         inkscape:connector-curvature="0"
         id="path1239"
         d="M 1.4305e-5,0 H 960.00001 V 540 H 1.4305e-5 Z" />
    </clipPath>
    <clipPath
       id="clipPath1253"
       clipPathUnits="userSpaceOnUse">
      <path
         style="clip-rule:evenodd"
         inkscape:connector-curvature="0"
         id="path1251"
         d="M 1.4305e-5,0 H 960.00001 V 540 H 1.4305e-5 Z" />
    </clipPath>
  </defs>
  <sodipodi:namedview
     id="base"
     pagecolor="#ffffff"
     bordercolor="#666666"
     borderopacity="1.0"
     inkscape:pageopacity="0.0"
     inkscape:pageshadow="2"
     inkscape:zoom="0.98994949"
     inkscape:cx="-135.36182"
     inkscape:cy="260.56457"
     inkscape:document-units="mm"
     inkscape:current-layer="layer1"
     showgrid="false"
     inkscape:window-width="1920"
     inkscape:window-height="1137"
     inkscape:window-x="-8"
     inkscape:window-y="-8"
     inkscape:window-maximized="1"
     fit-margin-top="0"
     fit-margin-left="0"
     fit-margin-right="0"
     fit-margin-bottom="0" />
  <metadata
     id="metadata5">
    <rdf:RDF>
      <cc:Work
         rdf:about="">
        <dc:format>image/svg+xml</dc:format>
        <dc:type
           rdf:resource="http://purl.org/dc/dcmitype/StillImage" />
        <dc:title>FieldMApp</dc:title>
      </cc:Work>
    </rdf:RDF>
  </metadata>
  <g
     inkscape:label="Ebene 1"
     inkscape:groupmode="layer"
     id="layer1"
     transform="translate(-35.502877,-178.39142)">
    <g
       id="g1027"
       transform="matrix(0.35277777,0,0,-0.35277777,-131.63602,230.90322)">
      <g
         id="g1029"
         clip-path="url(#clipPath1033)">
        <g
           aria-label="FieldMApp"
           transform="matrix(1,0,0,-1,527.52,104.81)"
           style="font-variant:normal;font-weight:bold;font-size:32.04000092px;font-family:'Seravek Basic';-inkscape-font-specification:SeravekBasic-Bold;writing-mode:lr-tb;fill:#ffffff;fill-opacity:1;fill-rule:nonzero;stroke:none"
           id="text1037" />
      </g>
    </g>
    <g
       id="g957">
      <g
         id="g918"
         style="font-variant:normal;font-weight:bold;font-size:32.04000092px;font-family:'Seravek Basic';-inkscape-font-specification:SeravekBasic-Bold;writing-mode:lr-tb;fill:#ffffff;fill-opacity:1;fill-rule:nonzero;stroke:none"
         transform="matrix(0.35277777,0,0,0.35277777,54.461309,193.92858)">
        <path
           d="M 2.0826001,0 V -21.338641 H 15.50736 v 4.165201 H 7.3371602 v 4.83804 H 15.12288 v 4.1651998 H 7.3371602 V 0 Z"
           style="fill:#ffffff;fill-opacity:1"
           id="path890" />
        <path
           d="m 18.390959,0 v -15.6996 h 5.1264 V 0 Z m -0.3204,-20.281321 q 0,-1.21752 0.801,-2.05056 0.801,-0.83304 2.0826,-0.83304 1.2816,0 2.0826,0.83304 0.801,0.83304 0.801,2.05056 0,1.21752 -0.801,2.05056 -0.801,0.833041 -2.0826,0.833041 -1.2816,0 -2.0826,-0.833041 -0.801,-0.83304 -0.801,-2.05056 z"
           style="fill:#ffffff;fill-opacity:1"
           id="path892" />
        <path
           d="m 34.31484,-16.02 q 3.075841,0 4.870081,1.82628 1.79424,1.79424 1.79424,4.9982397 0,1.2175201 -0.28836,2.5952401 H 31.59144 q 0.06408,1.4418001 0.9612,2.3389201 0.92916,0.86508 2.81952,0.86508 1.153441,0 2.403001,-0.19224 1.2816,-0.22428 2.21076,-0.6408 l 0.6408,3.30012007 Q 39.409201,-0.32040001 37.871281,0 q -1.50588,0.32040001 -3.139921,0.32040001 -2.05056,0 -3.62052,-0.57672002 -1.56996,-0.60876001 -2.62728,-1.66608009 -1.05732,-1.05732 -1.602,-2.53116 -0.54468,-1.4738401 -0.54468,-3.2680801 0,-1.9224001 0.54468,-3.4603198 0.57672,-1.53792 1.602,-2.59524 1.05732,-1.08936 2.53116,-1.66608 1.47384,-0.57672 3.30012,-0.57672 z m -0.1602,3.26808 q -1.21752,0 -1.89036,0.801 -0.6408,0.76896 -0.6408,2.1466797 h 4.549681 q 0.06408,-0.2563197 0.06408,-0.5446797 0,-1.02528 -0.54468,-1.69812 -0.544681,-0.70488 -1.537921,-0.70488 z"
           style="fill:#ffffff;fill-opacity:1"
           id="path894" />
        <path
           d="m 48.796921,-4.8060001 q 0,0.60876 0.25632,0.9612 0.25632,0.3204 0.99324,0.3204 0.44856,0 1.08936,-0.09612 l 0.1602,3.5244001 q -0.6408,0.19224 -1.47384,0.28836001 -0.801,0.12816 -1.66608,0.12816 -1.2816,0 -2.14668,-0.38448001 -0.86508,-0.38448001 -1.37772,-1.02528 -0.51264,-0.6408 -0.73692,-1.4418001 -0.22428,-0.83304 -0.22428,-1.69812 V -22.620241 h 5.1264 z"
           style="fill:#ffffff;fill-opacity:1"
           id="path896" />
        <path
           d="m 68.4054,0 h -4.90212 v -1.9864801 q -0.73692,1.05732007 -1.9224,1.69812009 -1.15344,0.60876002 -2.78748,0.60876002 -1.31364,0 -2.46708,-0.54468002 -1.15344,-0.57672001 -2.01852,-1.60200009 -0.83304,-1.05732 -1.31364,-2.53116 -0.4806,-1.4738401 -0.4806,-3.3001201 0,-2.0505601 0.6408,-3.6205198 0.67284,-1.56996 1.7622,-2.62728 1.1214,-1.05732 2.59524,-1.56996 1.47384,-0.54468 3.13992,-0.54468 0.83304,0 1.47384,0.12816 0.6408,0.09612 1.15344,0.25632 v -6.984721 h 5.1264 z m -7.75368,-3.6205201 q 1.63404,0 2.62728,-1.08936 V -11.91888 q -0.70488,-0.25632 -1.82628,-0.25632 -1.9224,0 -2.8836,1.18548 -0.92916,1.1854797 -0.92916,3.2360398 0,1.82628 0.70488,2.9797201 0.73692,1.15344 2.30688,1.15344 z"
           style="fill:#ffffff;fill-opacity:1"
           id="path898" />
        <path
           d="m 86.700237,-3.3962401 h -5.06232 L 77.472717,-11.95092 76.831917,0 h -5.15844 l 1.602,-21.338641 h 4.74192 l 6.15168,13.0402808 6.151681,-13.0402808 h 4.74192 L 96.664678,0 h -5.15844 l -0.6408,-11.95092 z"
           style="fill:#ffffff;fill-opacity:1"
           id="path900" />
        <path
           d="m 113.29344,-4.1331601 h -8.1702 L 103.8096,0 h -5.414759 l 7.945919,-21.338641 h 5.7672 L 120.05388,0 h -5.41476 z m -6.82452,-4.1652001 h 5.47884 l -2.7234,-9.0032398 z"
           style="fill:#ffffff;fill-opacity:1"
           id="path902" />
        <path
           d="m 122.36076,-15.6996 h 4.90212 v 1.85832 q 1.53792,-2.17872 4.70988,-2.17872 1.31364,0 2.46708,0.57672 1.15344,0.54468 1.98648,1.602 0.86508,1.02528 1.34568,2.49912 0.4806,1.4738397 0.4806,3.3001198 0,2.0826 -0.67284,3.6525601 -0.6408,1.53792 -1.7622,2.59524 -1.08936,1.05732008 -2.5632,1.60200009 -1.47384,0.51264002 -3.13992,0.51264002 -0.83304,0 -1.47384,-0.12816 Q 127.9998,0.09612 127.48716,-0.06408 v 6.6643202 h -5.1264 z m 7.75368,3.62052 q -0.86508,0 -1.50588,0.28836 -0.6408,0.25632 -1.1214,0.801 v 7.2730799 q 0.35244,0.12816 0.801,0.19224 0.44856,0.06408 1.02528,0.06408 2.01852,0 2.91564,-1.21752 0.89712,-1.2495601 0.89712,-3.3321601 0,-1.7301601 -0.73692,-2.8835998 -0.70488,-1.18548 -2.27484,-1.18548 z"
           style="fill:#ffffff;fill-opacity:1"
           id="path904" />
        <path
           d="m 141.07212,-15.6996 h 4.90212 v 1.85832 q 1.53792,-2.17872 4.70988,-2.17872 1.31364,0 2.46708,0.57672 1.15344,0.54468 1.98648,1.602 0.86508,1.02528 1.34568,2.49912 0.4806,1.4738397 0.4806,3.3001198 0,2.0826 -0.67284,3.6525601 -0.6408,1.53792 -1.7622,2.59524 -1.08936,1.05732008 -2.5632,1.60200009 -1.47384,0.51264002 -3.13992,0.51264002 -0.83304,0 -1.47384,-0.12816 Q 146.71116,0.09612 146.19852,-0.06408 v 6.6643202 h -5.1264 z m 7.75368,3.62052 q -0.86508,0 -1.50588,0.28836 -0.6408,0.25632 -1.1214,0.801 v 7.2730799 q 0.35244,0.12816 0.801,0.19224 0.44856,0.06408 1.02528,0.06408 2.01852,0 2.91564,-1.21752 0.89712,-1.2495601 0.89712,-3.3321601 0,-1.7301601 -0.73692,-2.8835998 -0.70488,-1.18548 -2.27484,-1.18548 z"
           style="fill:#ffffff;fill-opacity:1"
           id="path906" />
      </g>
      <path
         inkscape:connector-curvature="0"
         id="path1039"
         style="fill:#3f803f;fill-opacity:1;fill-rule:evenodd;stroke:none;stroke-width:0.35277778"
         d="m 38.263286,180.0547 c 0,-0.4692 0.381,-0.8502 0.850195,-0.8502 h 13.158611 c 0.469194,0 0.850194,0.381 0.850194,0.8502 v 18.11161 c 0,0.46955 -0.381,0.85019 -0.850194,0.85019 H 39.113481 c -0.469195,0 -0.850195,-0.38064 -0.850195,-0.85019 z" />
      <path
         inkscape:connector-curvature="0"
         id="path1041"
         style="fill:#a9d18e;fill-opacity:1;fill-rule:evenodd;stroke:none;stroke-width:0.35277778"
         d="m 38.898286,180.2452 c 0,-0.15522 0.123472,-0.2787 0.278695,-0.2787 h 13.073944 c 0.155222,0 0.278694,0.12348 0.278694,0.2787 v 16.33502 c 0,0.15311 -0.123472,0.27728 -0.278694,0.27728 H 39.176981 c -0.155223,0 -0.278695,-0.12417 -0.278695,-0.27728 z" />
      <path
         inkscape:connector-curvature="0"
         id="path1043"
         style="fill:#ffffff;fill-opacity:1;fill-rule:evenodd;stroke:none;stroke-width:0.35277778"
         d="m 43.893619,183.9035 c 0,-1.03011 0.832556,-1.86266 1.862667,-1.86266 1.030111,0 1.862667,0.83255 1.862667,1.86266 0,1.03012 -0.832556,1.86267 -1.862667,1.86267 -1.030111,0 -1.862667,-0.83255 -1.862667,-1.86267 z" />
      <path
         inkscape:connector-curvature="0"
         id="path1045"
         style="fill:none;stroke:#3f803f;stroke-width:0.33866665;stroke-linecap:butt;stroke-linejoin:miter;stroke-miterlimit:10;stroke-dasharray:none;stroke-opacity:1"
         d="m 43.893619,183.9035 c 0,-1.03011 0.832556,-1.86266 1.862667,-1.86266 1.030111,0 1.862667,0.83255 1.862667,1.86266 0,1.03012 -0.832556,1.86267 -1.862667,1.86267 -1.030111,0 -1.862667,-0.83255 -1.862667,-1.86267 z" />
      <path
         inkscape:connector-curvature="0"
         id="path1047"
         style="fill:#ffffff;fill-opacity:1;fill-rule:evenodd;stroke:none;stroke-width:0.35277778"
         d="m 40.676286,193.38617 c 0,-1.03011 0.832556,-1.86267 1.862667,-1.86267 1.030111,0 1.862666,0.83256 1.862666,1.86267 0,1.03011 -0.832555,1.86267 -1.862666,1.86267 -1.030111,0 -1.862667,-0.83256 -1.862667,-1.86267 z" />
      <path
         inkscape:connector-curvature="0"
         id="path1049"
         style="fill:none;stroke:#3f803f;stroke-width:0.33866665;stroke-linecap:butt;stroke-linejoin:miter;stroke-miterlimit:10;stroke-dasharray:none;stroke-opacity:1"
         d="m 40.676286,193.38617 c 0,-1.03011 0.832556,-1.86267 1.862667,-1.86267 1.030111,0 1.862666,0.83256 1.862666,1.86267 0,1.03011 -0.832555,1.86267 -1.862666,1.86267 -1.030111,0 -1.862667,-0.83256 -1.862667,-1.86267 z" />
      <path
         inkscape:connector-curvature="0"
         id="path1051"
         style="fill:#ffffff;fill-opacity:1;fill-rule:evenodd;stroke:none;stroke-width:0.35277778"
         d="m 38.898286,187.0785 c 0,-1.03011 0.832556,-1.86266 1.862667,-1.86266 1.030111,0 1.862666,0.83255 1.862666,1.86266 0,1.03012 -0.832555,1.86267 -1.862666,1.86267 -1.030111,0 -1.862667,-0.83255 -1.862667,-1.86267 z" />
      <path
         inkscape:connector-curvature="0"
         id="path1053"
         style="fill:none;stroke:#3f803f;stroke-width:0.33866665;stroke-linecap:butt;stroke-linejoin:miter;stroke-miterlimit:10;stroke-dasharray:none;stroke-opacity:1"
         d="m 38.898286,187.0785 c 0,-1.03011 0.832556,-1.86266 1.862667,-1.86266 1.030111,0 1.862666,0.83255 1.862666,1.86266 0,1.03012 -0.832555,1.86267 -1.862666,1.86267 -1.030111,0 -1.862667,-0.83255 -1.862667,-1.86267 z" />
      <path
         inkscape:connector-curvature="0"
         id="path1055"
         style="fill:#ffffff;fill-opacity:1;fill-rule:evenodd;stroke:none;stroke-width:0.35277778"
         d="m 47.026286,193.4285 c 0,-1.03011 0.843139,-1.86266 1.883833,-1.86266 1.040695,0 1.883834,0.83255 1.883834,1.86266 0,1.03012 -0.843139,1.86267 -1.883834,1.86267 -1.040694,0 -1.883833,-0.83255 -1.883833,-1.86267 z" />
      <path
         inkscape:connector-curvature="0"
         id="path1057"
         style="fill:none;stroke:#3f803f;stroke-width:0.33866665;stroke-linecap:butt;stroke-linejoin:miter;stroke-miterlimit:10;stroke-dasharray:none;stroke-opacity:1"
         d="m 47.026286,193.4285 c 0,-1.03011 0.843139,-1.86266 1.883833,-1.86266 1.040695,0 1.883834,0.83255 1.883834,1.86266 0,1.03012 -0.843139,1.86267 -1.883834,1.86267 -1.040694,0 -1.883833,-0.83255 -1.883833,-1.86267 z" />
      <path
         inkscape:connector-curvature="0"
         id="path1059"
         style="fill:#ffffff;fill-opacity:1;fill-rule:evenodd;stroke:none;stroke-width:0.35277778"
         d="m 48.846619,186.99384 c 0,-1.03011 0.832556,-1.86267 1.862667,-1.86267 1.030111,0 1.862667,0.83256 1.862667,1.86267 0,1.03011 -0.832556,1.86266 -1.862667,1.86266 -1.030111,0 -1.862667,-0.83255 -1.862667,-1.86266 z" />
      <path
         inkscape:connector-curvature="0"
         id="path1061"
         style="fill:none;stroke:#3f803f;stroke-width:0.33866665;stroke-linecap:butt;stroke-linejoin:miter;stroke-miterlimit:10;stroke-dasharray:none;stroke-opacity:1"
         d="m 48.846619,186.99384 c 0,-1.03011 0.832556,-1.86267 1.862667,-1.86267 1.030111,0 1.862667,0.83256 1.862667,1.86267 0,1.03011 -0.832556,1.86266 -1.862667,1.86266 -1.030111,0 -1.862667,-0.83255 -1.862667,-1.86266 z" />
      <path
         inkscape:connector-curvature="0"
         id="path1063"
         style="fill:none;stroke:#ffffff;stroke-width:1.22766662;stroke-linecap:round;stroke-linejoin:miter;stroke-miterlimit:10;stroke-dasharray:none;stroke-opacity:1"
         d="m 50.307119,193.40734 h 3.199695" />
      <path
         inkscape:connector-curvature="0"
         id="path1065"
         style="fill:none;stroke:#ffffff;stroke-width:1.22766662;stroke-linecap:round;stroke-linejoin:miter;stroke-miterlimit:10;stroke-dasharray:none;stroke-opacity:1"
         d="M 51.915786,187.015 H 55.11548" />
      <path
         inkscape:connector-curvature="0"
         id="path1067"
         style="fill:none;stroke:#ffffff;stroke-width:1.22766662;stroke-linecap:round;stroke-linejoin:miter;stroke-miterlimit:10;stroke-dasharray:none;stroke-opacity:1"
         d="m 37.73412,193.40734 h 3.199694" />
      <path
         inkscape:connector-curvature="0"
         id="path1069"
         style="fill:none;stroke:#ffffff;stroke-width:1.22766662;stroke-linecap:round;stroke-linejoin:miter;stroke-miterlimit:10;stroke-dasharray:none;stroke-opacity:1"
         d="m 36.125453,187.015 h 3.199694" />
      <path
         inkscape:connector-curvature="0"
         id="path1071"
         style="fill:none;stroke:#ffffff;stroke-width:1.22766662;stroke-linecap:round;stroke-linejoin:miter;stroke-miterlimit:10;stroke-dasharray:none;stroke-opacity:1"
         d="m 45.819786,179.014 v 3.1997" />
    </g>
  </g>
</svg>
