<?xml version="1.0" encoding="UTF-8" standalone="no"?>
<!-- Created with Inkscape (http://www.inkscape.org/) -->

<svg
   xmlns:dc="http://purl.org/dc/elements/1.1/"
   xmlns:cc="http://creativecommons.org/ns#"
   xmlns:rdf="http://www.w3.org/1999/02/22-rdf-syntax-ns#"
   xmlns:svg="http://www.w3.org/2000/svg"
   xmlns="http://www.w3.org/2000/svg"
   xmlns:sodipodi="http://sodipodi.sourceforge.net/DTD/sodipodi-0.dtd"
   xmlns:inkscape="http://www.inkscape.org/namespaces/inkscape"
   width="74.331825mm"
   height="20.625076mm"
   viewBox="0 0 74.331825 20.625076"
   version="1.1"
   id="svg8"
   sodipodi:docname="FieldMAppLogo_S_wT_bright.svg"
   inkscape:version="0.92.4 (5da689c313, 2019-01-14)">
  <title
     id="title1778">FieldMApp</title>
  <defs
     id="defs2">
    <clipPath
       id="clipPath831"
       clipPathUnits="userSpaceOnUse">
      <path
         style="clip-rule:evenodd"
         inkscape:connector-curvature="0"
         id="path829"
         d="M 0,1.2207e-4 H 960 V 540.00012 H 0 Z" />
    </clipPath>
    <clipPath
       id="clipPath841"
       clipPathUnits="userSpaceOnUse">
      <path
         style="clip-rule:evenodd"
         inkscape:connector-curvature="0"
         id="path839"
         d="M 0,1.2207e-4 H 960 V 540.00012 H 0 Z" />
    </clipPath>
    <clipPath
       id="clipPath885"
       clipPathUnits="userSpaceOnUse">
      <path
         style="clip-rule:evenodd"
         inkscape:connector-curvature="0"
         id="path883"
         d="M 1.4305e-5,0 H 960.00001 V 540 H 1.4305e-5 Z" />
    </clipPath>
    <clipPath
       id="clipPath897"
       clipPathUnits="userSpaceOnUse">
      <path
         style="clip-rule:evenodd"
         inkscape:connector-curvature="0"
         id="path895"
         d="M 1.4305e-5,0 H 960.00001 V 540 H 1.4305e-5 Z" />
    </clipPath>
    <clipPath
       id="clipPath923"
       clipPathUnits="userSpaceOnUse">
      <path
         style="clip-rule:evenodd"
         inkscape:connector-curvature="0"
         id="path921"
         d="M -2.0815e-5,540 H 960 V -6.1035e-5 L 6.17e-7,0" />
    </clipPath>
    <clipPath
       id="clipPath933"
       clipPathUnits="userSpaceOnUse">
      <path
         style="clip-rule:evenodd"
         inkscape:connector-curvature="0"
         id="path931"
         d="M -8.256e-6,540 H 960 V -6.1035e-5 L -7.187e-6,6.1035e-5" />
    </clipPath>
    <clipPath
       id="clipPath1033"
       clipPathUnits="userSpaceOnUse">
      <path
         style="clip-rule:evenodd"
         inkscape:connector-curvature="0"
         id="path1031"
         d="M 1.4305e-5,0 H 960.00001 V 540 H 1.4305e-5 Z" />
    </clipPath>
    <clipPath
       id="clipPath1093"
       clipPathUnits="userSpaceOnUse">
      <path
         style="clip-rule:evenodd"
         inkscape:connector-curvature="0"
         id="path1091"
         d="M -3.4155e-5,540 H 960 V 0 H -1.3144e-5" />
    </clipPath>
    <clipPath
       id="clipPath1103"
       clipPathUnits="userSpaceOnUse">
      <path
         style="clip-rule:evenodd"
         inkscape:connector-curvature="0"
         id="path1101"
         d="M 1.892e-6,540 H 960 V -6.1035e-5 L 7.736e-6,6.1035e-5" />
    </clipPath>
    <clipPath
       id="clipPath1169"
       clipPathUnits="userSpaceOnUse">
      <path
         style="clip-rule:evenodd"
         inkscape:connector-curvature="0"
         id="path1167"
         d="M 1.4305e-5,0 H 960.00001 V 540 H 1.4305e-5 Z" />
    </clipPath>
    <clipPath
       id="clipPath1181"
       clipPathUnits="userSpaceOnUse">
      <path
         style="clip-rule:evenodd"
         inkscape:connector-curvature="0"
         id="path1179"
         d="M 1.4305e-5,0 H 960.00001 V 540 H 1.4305e-5 Z" />
    </clipPath>
    <clipPath
       id="clipPath1193"
       clipPathUnits="userSpaceOnUse">
      <path
         style="clip-rule:evenodd"
         inkscape:connector-curvature="0"
         id="path1191"
         d="M 1.4305e-5,0 H 960.00001 V 540 H 1.4305e-5 Z" />
    </clipPath>
    <clipPath
       id="clipPath1205"
       clipPathUnits="userSpaceOnUse">
      <path
         style="clip-rule:evenodd"
         inkscape:connector-curvature="0"
         id="path1203"
         d="M 1.4305e-5,0 H 960.00001 V 540 H 1.4305e-5 Z" />
    </clipPath>
    <clipPath
       id="clipPath1217"
       clipPathUnits="userSpaceOnUse">
      <path
         style="clip-rule:evenodd"
         inkscape:connector-curvature="0"
         id="path1215"
         d="M 1.4305e-5,0 H 960.00001 V 540 H 1.4305e-5 Z" />
    </clipPath>
    <clipPath
       id="clipPath1229"
       clipPathUnits="userSpaceOnUse">
      <path
         style="clip-rule:evenodd"
         inkscape:connector-curvature="0"
         id="path1227"
         d="M 1.4305e-5,0 H 960.00001 V 540 H 1.4305e-5 Z" />
    </clipPath>
    <clipPath
       id="clipPath1241"
       clipPathUnits="userSpaceOnUse">
      <path
         style="clip-rule:evenodd"
         inkscape:connector-curvature="0"
         id="path1239"
         d="M 1.4305e-5,0 H 960.00001 V 540 H 1.4305e-5 Z" />
    </clipPath>
    <clipPath
       id="clipPath1253"
       clipPathUnits="userSpaceOnUse">
      <path
         style="clip-rule:evenodd"
         inkscape:connector-curvature="0"
         id="path1251"
         d="M 1.4305e-5,0 H 960.00001 V 540 H 1.4305e-5 Z" />
    </clipPath>
  </defs>
  <sodipodi:namedview
     id="base"
     pagecolor="#ffffff"
     bordercolor="#666666"
     borderopacity="1.0"
     inkscape:pageopacity="0.0"
     inkscape:pageshadow="2"
     inkscape:zoom="0.98994949"
     inkscape:cx="85.35651"
     inkscape:cy="260.56457"
     inkscape:document-units="mm"
     inkscape:current-layer="layer1"
     showgrid="false"
     inkscape:window-width="1920"
     inkscape:window-height="1137"
     inkscape:window-x="-8"
     inkscape:window-y="-8"
     inkscape:window-maximized="1"
     fit-margin-top="0"
     fit-margin-left="0"
     fit-margin-right="0"
     fit-margin-bottom="0" />
  <metadata
     id="metadata5">
    <rdf:RDF>
      <cc:Work
         rdf:about="">
        <dc:format>image/svg+xml</dc:format>
        <dc:type
           rdf:resource="http://purl.org/dc/dcmitype/StillImage" />
        <dc:title>FieldMApp</dc:title>
      </cc:Work>
    </rdf:RDF>
  </metadata>
  <g
     inkscape:label="Ebene 1"
     inkscape:groupmode="layer"
     id="layer1"
     transform="translate(-35.502877,-178.39142)">
    <g
       id="g1776">
      <g
         transform="matrix(0.35277777,0,0,-0.35277777,-131.63602,230.90322)"
         id="g1027">
        <g
           clip-path="url(#clipPath1033)"
           id="g1029">
          <text
             id="text1037"
             style="font-variant:normal;font-weight:bold;font-size:32.04000092px;font-family:'Seravek Basic';-inkscape-font-specification:SeravekBasic-Bold;writing-mode:lr-tb;fill:#ffffff;fill-opacity:1;fill-rule:nonzero;stroke:none"
             transform="matrix(1,0,0,-1,527.52,104.81)">
            <tspan
               id="tspan1035"
               sodipodi:role="line"
               y="0"
               x="0 16.468559 25.43976 41.972401 51.61644 70.327797 98.010361 120.43836 139.14972">FieldMApp</tspan>
          </text>
        </g>
      </g>
      <path
         inkscape:connector-curvature="0"
         id="path1039"
         style="fill:#3f803f;fill-opacity:1;fill-rule:evenodd;stroke:none;stroke-width:0.35277778"
         d="m 38.263286,180.0547 c 0,-0.4692 0.381,-0.8502 0.850195,-0.8502 h 13.158611 c 0.469194,0 0.850194,0.381 0.850194,0.8502 v 18.11161 c 0,0.46955 -0.381,0.85019 -0.850194,0.85019 H 39.113481 c -0.469195,0 -0.850195,-0.38064 -0.850195,-0.85019 z" />
      <path
         inkscape:connector-curvature="0"
         id="path1041"
         style="fill:#a9d18e;fill-opacity:1;fill-rule:evenodd;stroke:none;stroke-width:0.35277778"
         d="m 38.898286,180.2452 c 0,-0.15522 0.123472,-0.2787 0.278695,-0.2787 h 13.073944 c 0.155222,0 0.278694,0.12348 0.278694,0.2787 v 16.33502 c 0,0.15311 -0.123472,0.27728 -0.278694,0.27728 H 39.176981 c -0.155223,0 -0.278695,-0.12417 -0.278695,-0.27728 z" />
      <path
         inkscape:connector-curvature="0"
         id="path1043"
         style="fill:#ffffff;fill-opacity:1;fill-rule:evenodd;stroke:none;stroke-width:0.35277778"
         d="m 43.893619,183.9035 c 0,-1.03011 0.832556,-1.86266 1.862667,-1.86266 1.030111,0 1.862667,0.83255 1.862667,1.86266 0,1.03012 -0.832556,1.86267 -1.862667,1.86267 -1.030111,0 -1.862667,-0.83255 -1.862667,-1.86267 z" />
      <path
         inkscape:connector-curvature="0"
         id="path1045"
         style="fill:none;stroke:#3f803f;stroke-width:0.33866665;stroke-linecap:butt;stroke-linejoin:miter;stroke-miterlimit:10;stroke-dasharray:none;stroke-opacity:1"
         d="m 43.893619,183.9035 c 0,-1.03011 0.832556,-1.86266 1.862667,-1.86266 1.030111,0 1.862667,0.83255 1.862667,1.86266 0,1.03012 -0.832556,1.86267 -1.862667,1.86267 -1.030111,0 -1.862667,-0.83255 -1.862667,-1.86267 z" />
      <path
         inkscape:connector-curvature="0"
         id="path1047"
         style="fill:#ffffff;fill-opacity:1;fill-rule:evenodd;stroke:none;stroke-width:0.35277778"
         d="m 40.676286,193.38617 c 0,-1.03011 0.832556,-1.86267 1.862667,-1.86267 1.030111,0 1.862666,0.83256 1.862666,1.86267 0,1.03011 -0.832555,1.86267 -1.862666,1.86267 -1.030111,0 -1.862667,-0.83256 -1.862667,-1.86267 z" />
      <path
         inkscape:connector-curvature="0"
         id="path1049"
         style="fill:none;stroke:#3f803f;stroke-width:0.33866665;stroke-linecap:butt;stroke-linejoin:miter;stroke-miterlimit:10;stroke-dasharray:none;stroke-opacity:1"
         d="m 40.676286,193.38617 c 0,-1.03011 0.832556,-1.86267 1.862667,-1.86267 1.030111,0 1.862666,0.83256 1.862666,1.86267 0,1.03011 -0.832555,1.86267 -1.862666,1.86267 -1.030111,0 -1.862667,-0.83256 -1.862667,-1.86267 z" />
      <path
         inkscape:connector-curvature="0"
         id="path1051"
         style="fill:#ffffff;fill-opacity:1;fill-rule:evenodd;stroke:none;stroke-width:0.35277778"
         d="m 38.898286,187.0785 c 0,-1.03011 0.832556,-1.86266 1.862667,-1.86266 1.030111,0 1.862666,0.83255 1.862666,1.86266 0,1.03012 -0.832555,1.86267 -1.862666,1.86267 -1.030111,0 -1.862667,-0.83255 -1.862667,-1.86267 z" />
      <path
         inkscape:connector-curvature="0"
         id="path1053"
         style="fill:none;stroke:#3f803f;stroke-width:0.33866665;stroke-linecap:butt;stroke-linejoin:miter;stroke-miterlimit:10;stroke-dasharray:none;stroke-opacity:1"
         d="m 38.898286,187.0785 c 0,-1.03011 0.832556,-1.86266 1.862667,-1.86266 1.030111,0 1.862666,0.83255 1.862666,1.86266 0,1.03012 -0.832555,1.86267 -1.862666,1.86267 -1.030111,0 -1.862667,-0.83255 -1.862667,-1.86267 z" />
      <path
         inkscape:connector-curvature="0"
         id="path1055"
         style="fill:#ffffff;fill-opacity:1;fill-rule:evenodd;stroke:none;stroke-width:0.35277778"
         d="m 47.026286,193.4285 c 0,-1.03011 0.843139,-1.86266 1.883833,-1.86266 1.040695,0 1.883834,0.83255 1.883834,1.86266 0,1.03012 -0.843139,1.86267 -1.883834,1.86267 -1.040694,0 -1.883833,-0.83255 -1.883833,-1.86267 z" />
      <path
         inkscape:connector-curvature="0"
         id="path1057"
         style="fill:none;stroke:#3f803f;stroke-width:0.33866665;stroke-linecap:butt;stroke-linejoin:miter;stroke-miterlimit:10;stroke-dasharray:none;stroke-opacity:1"
         d="m 47.026286,193.4285 c 0,-1.03011 0.843139,-1.86266 1.883833,-1.86266 1.040695,0 1.883834,0.83255 1.883834,1.86266 0,1.03012 -0.843139,1.86267 -1.883834,1.86267 -1.040694,0 -1.883833,-0.83255 -1.883833,-1.86267 z" />
      <path
         inkscape:connector-curvature="0"
         id="path1059"
         style="fill:#ffffff;fill-opacity:1;fill-rule:evenodd;stroke:none;stroke-width:0.35277778"
         d="m 48.846619,186.99384 c 0,-1.03011 0.832556,-1.86267 1.862667,-1.86267 1.030111,0 1.862667,0.83256 1.862667,1.86267 0,1.03011 -0.832556,1.86266 -1.862667,1.86266 -1.030111,0 -1.862667,-0.83255 -1.862667,-1.86266 z" />
      <path
         inkscape:connector-curvature="0"
         id="path1061"
         style="fill:none;stroke:#3f803f;stroke-width:0.33866665;stroke-linecap:butt;stroke-linejoin:miter;stroke-miterlimit:10;stroke-dasharray:none;stroke-opacity:1"
         d="m 48.846619,186.99384 c 0,-1.03011 0.832556,-1.86267 1.862667,-1.86267 1.030111,0 1.862667,0.83256 1.862667,1.86267 0,1.03011 -0.832556,1.86266 -1.862667,1.86266 -1.030111,0 -1.862667,-0.83255 -1.862667,-1.86266 z" />
      <path
         inkscape:connector-curvature="0"
         id="path1063"
         style="fill:none;stroke:#ffffff;stroke-width:1.22766662;stroke-linecap:round;stroke-linejoin:miter;stroke-miterlimit:10;stroke-dasharray:none;stroke-opacity:1"
         d="m 50.307119,193.40734 h 3.199695" />
      <path
         inkscape:connector-curvature="0"
         id="path1065"
         style="fill:none;stroke:#ffffff;stroke-width:1.22766662;stroke-linecap:round;stroke-linejoin:miter;stroke-miterlimit:10;stroke-dasharray:none;stroke-opacity:1"
         d="M 51.915786,187.015 H 55.11548" />
      <path
         inkscape:connector-curvature="0"
         id="path1067"
         style="fill:none;stroke:#ffffff;stroke-width:1.22766662;stroke-linecap:round;stroke-linejoin:miter;stroke-miterlimit:10;stroke-dasharray:none;stroke-opacity:1"
         d="m 37.73412,193.40734 h 3.199694" />
      <path
         inkscape:connector-curvature="0"
         id="path1069"
         style="fill:none;stroke:#ffffff;stroke-width:1.22766662;stroke-linecap:round;stroke-linejoin:miter;stroke-miterlimit:10;stroke-dasharray:none;stroke-opacity:1"
         d="m 36.125453,187.015 h 3.199694" />
      <path
         inkscape:connector-curvature="0"
         id="path1071"
         style="fill:none;stroke:#ffffff;stroke-width:1.22766662;stroke-linecap:round;stroke-linejoin:miter;stroke-miterlimit:10;stroke-dasharray:none;stroke-opacity:1"
         d="m 45.819786,179.014 v 3.1997" />
    </g>
  </g>
</svg>
