 <svg  version="1.0" xmlns="http://www.w3.org/2000/svg"  width="900.000000pt" height="900.000000pt" viewBox="0 0 900.000000 900.000000"  preserveAspectRatio="xMidYMid meet">  <g transform="translate(0.000000,900.000000) scale(0.100000,-0.100000)" fill="#408748" stroke="none"> <path d="M5497 8224 c-1 -1 -690 -5 -1532 -8 -1536 -6 -1947 -12 -1975 -26 -23 -11 -92 -23 -121 -21 -14 1 -31 -5 -39 -13 -7 -10 -28 -16 -51 -16 -21 0 -41 -4 -44 -10 -3 -5 -15 -10 -25 -10 -18 0 -51 -12 -119 -44 -13 -6 -32 -10 -41 -8 -9 1 -23 -4 -30 -13 -7 -8 -16 -15 -21 -15 -5 0 -38 -20 -75 -45 -36 -25 -68 -45 -71 -45 -14 0 -158 -124 -213 -183 -19 -21 -60 -64 -90 -95 -30 -31 -54 -60 -53 -64 2 -4 -11 -22 -27 -40 -17 -18 -30 -41 -30 -51 0 -9 -7 -20 -15 -23 -8 -4 -15 -16 -15 -29 0 -13 -7 -25 -15 -29 -8 -3 -15 -15 -15 -26 0 -11 -7 -23 -15 -26 -9 -4 -15 -19 -15 -40 0 -23 -5 -34 -15 -34 -11 0 -13 -7 -9 -28 4 -20 0 -34 -12 -46 -11 -12 -18 -35 -19 -67 -1 -28 -7 -55 -13 -61 -7 -7 -12 -38 -12 -70 0 -46 -4 -62 -21 -79 -16 -16 -19 -28 -14 -47 4 -15 8 -40 8 -57 3 -92 -14 -1500 -19 -1552 -5 -55 -3 -63 15 -72 13 -8 194 -11 560 -11 l540 0 20 26 c12 15 21 31 21 36 0 24 114 180 169 231 60 55 170 127 195 127 6 0 17 5 22 10 23 23 169 50 269 50 229 -1 423 -99 567 -289 234 -309 204 -688 -76 -964 -83 -81 -159 -129 -269 -169 -109 -40 -277 -50 -389 -23 -183 45 -341 155 -438 304 -27 42 -58 88 -70 104 l-22 27 -548 0 c-445 0 -550 -3 -559 -13 -6 -8 -15 -74 -19 -148 -12 -187 -5 -2147 7 -2284 6 -60 8 -117 6 -126 -3 -8 2 -37 10 -65 8 -27 15 -70 15 -96 0 -26 5 -59 11 -75 7 -15 15 -46 19 -68 8 -40 22 -83 47 -142 7 -17 13 -35 13 -41 0 -16 70 -143 127 -229 56 -86 144 -187 248 -286 115 -109 354 -255 490 -297 22 -7 56 -18 75 -25 69 -25 140 -37 370 -63 36 -4 812 -7 1725 -7 l1660 0 0 807 0 806 -25 27 c-14 15 -38 34 -55 42 -42 22 -144 101 -183 143 -51 53 -128 174 -153 238 -31 82 -59 217 -59 283 0 64 26 183 59 270 30 80 87 163 161 237 120 119 241 181 408 209 88 15 109 15 183 4 92 -15 161 -36 229 -71 127 -64 267 -201 341 -335 18 -33 34 -62 37 -65 2 -3 196 -7 430 -10 425 -5 427 -5 472 -29 93 -48 140 -126 140 -231 0 -102 -37 -165 -129 -223 -35 -22 -42 -22 -466 -27 -236 -3 -436 -9 -443 -13 -7 -5 -22 -27 -33 -50 -60 -119 -169 -232 -306 -320 -60 -39 -73 -52 -78 -79 -3 -18 -5 -382 -3 -809 2 -640 5 -779 17 -792 12 -15 48 -17 335 -17 176 0 364 5 416 11 204 22 247 28 300 43 30 8 75 20 100 27 25 6 49 16 55 20 5 5 16 9 25 9 8 0 59 22 112 49 356 179 624 470 751 816 51 140 87 306 87 400 0 33 5 76 11 95 14 47 12 2481 -2 2495 -12 12 -1104 16 -1136 4 -12 -4 -32 -28 -44 -51 -81 -160 -250 -304 -424 -364 -72 -25 -93 -28 -215 -27 -120 0 -144 3 -215 27 -199 67 -366 221 -454 419 -40 89 -55 159 -55 267 -2 172 46 311 154 450 60 78 136 147 207 188 62 36 90 48 194 81 19 6 94 11 166 11 112 0 141 -4 207 -25 43 -14 96 -35 119 -46 120 -62 250 -194 317 -322 14 -27 32 -55 40 -62 23 -21 1128 -24 1141 -3 11 17 10 1360 -2 1498 -4 58 -11 147 -14 198 -3 52 -8 99 -12 104 -3 6 -12 41 -20 77 -27 128 -31 143 -42 154 -6 6 -11 17 -11 25 0 18 -92 208 -124 255 -14 21 -26 41 -26 45 0 4 -10 18 -23 32 -13 14 -42 49 -64 78 -61 76 -275 272 -298 272 -3 0 -29 16 -58 36 -60 42 -251 134 -278 134 -10 0 -21 5 -24 10 -3 6 -21 10 -39 10 -18 0 -41 7 -52 15 -10 8 -38 15 -61 15 -23 0 -54 5 -70 12 -15 6 -77 14 -138 16 -99 3 -1414 9 -1418 6z m-900 -468 c29 -14 72 -45 95 -70 77 -80 78 -85 78 -553 l0 -412 73 -43 c43 -25 108 -78 162 -133 74 -73 98 -106 132 -175 23 -47 49 -114 58 -150 22 -86 30 -213 17 -275 -6 -27 -16 -72 -21 -99 -6 -27 -15 -54 -20 -60 -5 -6 -12 -22 -16 -36 -15 -51 -113 -187 -166 -231 -113 -94 -179 -131 -307 -171 -89 -28 -267 -29 -362 -3 -323 89 -550 380 -550 705 0 129 29 237 97 360 46 81 160 200 238 247 33 20 70 44 82 52 l22 16 1 425 c0 412 1 427 21 465 74 141 234 202 366 141z m-1242 -3981 c142 -37 309 -147 402 -264 91 -116 163 -313 163 -450 0 -57 -27 -195 -51 -261 -60 -167 -211 -332 -365 -400 -138 -60 -183 -70 -319 -70 -120 0 -167 9 -284 53 -132 50 -289 187 -361 316 -61 110 -13 100 -494 103 l-421 3 -40 26 c-88 58 -125 123 -125 217 0 82 20 130 80 189 71 72 82 73 526 73 216 0 399 3 408 6 8 3 36 43 62 87 33 57 77 112 143 177 81 81 110 103 191 143 52 26 127 53 165 61 85 18 235 14 320 -9z"/> </g> </svg> 